<?xml version="1.0" encoding="UTF-8"?><svg xmlns="http://www.w3.org/2000/svg" xmlns:xlink="http://www.w3.org/1999/xlink" contentScriptType="text/ecmascript" width="21" zoomAndPan="magnify" contentStyleType="text/css" height="21" preserveAspectRatio="xMidYMid meet" version="1.0"><rect x="0" y="0" fill="black" width="1" height="1" stroke="black" stroke-width="0.01"/><rect x="1" y="0" fill="black" width="1" height="1" stroke="black" stroke-width="0.01"/><rect x="2" y="0" fill="black" width="1" height="1" stroke="black" stroke-width="0.01"/><rect x="3" y="0" fill="black" width="1" height="1" stroke="black" stroke-width="0.01"/><rect x="4" y="0" fill="black" width="1" height="1" stroke="black" stroke-width="0.01"/><rect x="5" y="0" fill="black" width="1" height="1" stroke="black" stroke-width="0.01"/><rect x="6" y="0" fill="black" width="1" height="1" stroke="black" stroke-width="0.01"/><rect x="8" y="0" fill="black" width="1" height="1" stroke="black" stroke-width="0.01"/><rect x="12" y="0" fill="black" width="1" height="1" stroke="black" stroke-width="0.01"/><rect x="14" y="0" fill="black" width="1" height="1" stroke="black" stroke-width="0.01"/><rect x="15" y="0" fill="black" width="1" height="1" stroke="black" stroke-width="0.01"/><rect x="16" y="0" fill="black" width="1" height="1" stroke="black" stroke-width="0.01"/><rect x="17" y="0" fill="black" width="1" height="1" stroke="black" stroke-width="0.01"/><rect x="18" y="0" fill="black" width="1" height="1" stroke="black" stroke-width="0.01"/><rect x="19" y="0" fill="black" width="1" height="1" stroke="black" stroke-width="0.01"/><rect x="20" y="0" fill="black" width="1" height="1" stroke="black" stroke-width="0.01"/><rect x="0" y="1" fill="black" width="1" height="1" stroke="black" stroke-width="0.01"/><rect x="6" y="1" fill="black" width="1" height="1" stroke="black" stroke-width="0.01"/><rect x="8" y="1" fill="black" width="1" height="1" stroke="black" stroke-width="0.01"/><rect x="9" y="1" fill="black" width="1" height="1" stroke="black" stroke-width="0.01"/><rect x="11" y="1" fill="black" width="1" height="1" stroke="black" stroke-width="0.01"/><rect x="14" y="1" fill="black" width="1" height="1" stroke="black" stroke-width="0.01"/><rect x="20" y="1" fill="black" width="1" height="1" stroke="black" stroke-width="0.01"/><rect x="0" y="2" fill="black" width="1" height="1" stroke="black" stroke-width="0.01"/><rect x="2" y="2" fill="black" width="1" height="1" stroke="black" stroke-width="0.01"/><rect x="3" y="2" fill="black" width="1" height="1" stroke="black" stroke-width="0.01"/><rect x="4" y="2" fill="black" width="1" height="1" stroke="black" stroke-width="0.01"/><rect x="6" y="2" fill="black" width="1" height="1" stroke="black" stroke-width="0.01"/><rect x="8" y="2" fill="black" width="1" height="1" stroke="black" stroke-width="0.01"/><rect x="9" y="2" fill="black" width="1" height="1" stroke="black" stroke-width="0.01"/><rect x="10" y="2" fill="black" width="1" height="1" stroke="black" stroke-width="0.01"/><rect x="11" y="2" fill="black" width="1" height="1" stroke="black" stroke-width="0.01"/><rect x="12" y="2" fill="black" width="1" height="1" stroke="black" stroke-width="0.01"/><rect x="14" y="2" fill="black" width="1" height="1" stroke="black" stroke-width="0.01"/><rect x="16" y="2" fill="black" width="1" height="1" stroke="black" stroke-width="0.01"/><rect x="17" y="2" fill="black" width="1" height="1" stroke="black" stroke-width="0.01"/><rect x="18" y="2" fill="black" width="1" height="1" stroke="black" stroke-width="0.01"/><rect x="20" y="2" fill="black" width="1" height="1" stroke="black" stroke-width="0.01"/><rect x="0" y="3" fill="black" width="1" height="1" stroke="black" stroke-width="0.01"/><rect x="2" y="3" fill="black" width="1" height="1" stroke="black" stroke-width="0.01"/><rect x="3" y="3" fill="black" width="1" height="1" stroke="black" stroke-width="0.01"/><rect x="4" y="3" fill="black" width="1" height="1" stroke="black" stroke-width="0.01"/><rect x="6" y="3" fill="black" width="1" height="1" stroke="black" stroke-width="0.01"/><rect x="8" y="3" fill="black" width="1" height="1" stroke="black" stroke-width="0.01"/><rect x="10" y="3" fill="black" width="1" height="1" stroke="black" stroke-width="0.01"/><rect x="12" y="3" fill="black" width="1" height="1" stroke="black" stroke-width="0.01"/><rect x="14" y="3" fill="black" width="1" height="1" stroke="black" stroke-width="0.01"/><rect x="16" y="3" fill="black" width="1" height="1" stroke="black" stroke-width="0.01"/><rect x="17" y="3" fill="black" width="1" height="1" stroke="black" stroke-width="0.01"/><rect x="18" y="3" fill="black" width="1" height="1" stroke="black" stroke-width="0.01"/><rect x="20" y="3" fill="black" width="1" height="1" stroke="black" stroke-width="0.01"/><rect x="0" y="4" fill="black" width="1" height="1" stroke="black" stroke-width="0.01"/><rect x="2" y="4" fill="black" width="1" height="1" stroke="black" stroke-width="0.01"/><rect x="3" y="4" fill="black" width="1" height="1" stroke="black" stroke-width="0.01"/><rect x="4" y="4" fill="black" width="1" height="1" stroke="black" stroke-width="0.01"/><rect x="6" y="4" fill="black" width="1" height="1" stroke="black" stroke-width="0.01"/><rect x="9" y="4" fill="black" width="1" height="1" stroke="black" stroke-width="0.01"/><rect x="10" y="4" fill="black" width="1" height="1" stroke="black" stroke-width="0.01"/><rect x="11" y="4" fill="black" width="1" height="1" stroke="black" stroke-width="0.01"/><rect x="12" y="4" fill="black" width="1" height="1" stroke="black" stroke-width="0.01"/><rect x="14" y="4" fill="black" width="1" height="1" stroke="black" stroke-width="0.01"/><rect x="16" y="4" fill="black" width="1" height="1" stroke="black" stroke-width="0.01"/><rect x="17" y="4" fill="black" width="1" height="1" stroke="black" stroke-width="0.01"/><rect x="18" y="4" fill="black" width="1" height="1" stroke="black" stroke-width="0.01"/><rect x="20" y="4" fill="black" width="1" height="1" stroke="black" stroke-width="0.01"/><rect x="0" y="5" fill="black" width="1" height="1" stroke="black" stroke-width="0.01"/><rect x="6" y="5" fill="black" width="1" height="1" stroke="black" stroke-width="0.01"/><rect x="8" y="5" fill="black" width="1" height="1" stroke="black" stroke-width="0.01"/><rect x="10" y="5" fill="black" width="1" height="1" stroke="black" stroke-width="0.01"/><rect x="12" y="5" fill="black" width="1" height="1" stroke="black" stroke-width="0.01"/><rect x="14" y="5" fill="black" width="1" height="1" stroke="black" stroke-width="0.01"/><rect x="20" y="5" fill="black" width="1" height="1" stroke="black" stroke-width="0.01"/><rect x="0" y="6" fill="black" width="1" height="1" stroke="black" stroke-width="0.01"/><rect x="1" y="6" fill="black" width="1" height="1" stroke="black" stroke-width="0.01"/><rect x="2" y="6" fill="black" width="1" height="1" stroke="black" stroke-width="0.01"/><rect x="3" y="6" fill="black" width="1" height="1" stroke="black" stroke-width="0.01"/><rect x="4" y="6" fill="black" width="1" height="1" stroke="black" stroke-width="0.01"/><rect x="5" y="6" fill="black" width="1" height="1" stroke="black" stroke-width="0.01"/><rect x="6" y="6" fill="black" width="1" height="1" stroke="black" stroke-width="0.01"/><rect x="8" y="6" fill="black" width="1" height="1" stroke="black" stroke-width="0.01"/><rect x="10" y="6" fill="black" width="1" height="1" stroke="black" stroke-width="0.01"/><rect x="12" y="6" fill="black" width="1" height="1" stroke="black" stroke-width="0.01"/><rect x="14" y="6" fill="black" width="1" height="1" stroke="black" stroke-width="0.01"/><rect x="15" y="6" fill="black" width="1" height="1" stroke="black" stroke-width="0.01"/><rect x="16" y="6" fill="black" width="1" height="1" stroke="black" stroke-width="0.01"/><rect x="17" y="6" fill="black" width="1" height="1" stroke="black" stroke-width="0.01"/><rect x="18" y="6" fill="black" width="1" height="1" stroke="black" stroke-width="0.01"/><rect x="19" y="6" fill="black" width="1" height="1" stroke="black" stroke-width="0.01"/><rect x="20" y="6" fill="black" width="1" height="1" stroke="black" stroke-width="0.01"/><rect x="0" y="8" fill="black" width="1" height="1" stroke="black" stroke-width="0.01"/><rect x="1" y="8" fill="black" width="1" height="1" stroke="black" stroke-width="0.01"/><rect x="4" y="8" fill="black" width="1" height="1" stroke="black" stroke-width="0.01"/><rect x="5" y="8" fill="black" width="1" height="1" stroke="black" stroke-width="0.01"/><rect x="6" y="8" fill="black" width="1" height="1" stroke="black" stroke-width="0.01"/><rect x="12" y="8" fill="black" width="1" height="1" stroke="black" stroke-width="0.01"/><rect x="15" y="8" fill="black" width="1" height="1" stroke="black" stroke-width="0.01"/><rect x="17" y="8" fill="black" width="1" height="1" stroke="black" stroke-width="0.01"/><rect x="18" y="8" fill="black" width="1" height="1" stroke="black" stroke-width="0.01"/><rect x="19" y="8" fill="black" width="1" height="1" stroke="black" stroke-width="0.01"/><rect x="20" y="8" fill="black" width="1" height="1" stroke="black" stroke-width="0.01"/><rect x="0" y="9" fill="black" width="1" height="1" stroke="black" stroke-width="0.01"/><rect x="1" y="9" fill="black" width="1" height="1" stroke="black" stroke-width="0.01"/><rect x="2" y="9" fill="black" width="1" height="1" stroke="black" stroke-width="0.01"/><rect x="5" y="9" fill="black" width="1" height="1" stroke="black" stroke-width="0.01"/><rect x="9" y="9" fill="black" width="1" height="1" stroke="black" stroke-width="0.01"/><rect x="10" y="9" fill="black" width="1" height="1" stroke="black" stroke-width="0.01"/><rect x="12" y="9" fill="black" width="1" height="1" stroke="black" stroke-width="0.01"/><rect x="14" y="9" fill="black" width="1" height="1" stroke="black" stroke-width="0.01"/><rect x="15" y="9" fill="black" width="1" height="1" stroke="black" stroke-width="0.01"/><rect x="16" y="9" fill="black" width="1" height="1" stroke="black" stroke-width="0.01"/><rect x="17" y="9" fill="black" width="1" height="1" stroke="black" stroke-width="0.01"/><rect x="18" y="9" fill="black" width="1" height="1" stroke="black" stroke-width="0.01"/><rect x="19" y="9" fill="black" width="1" height="1" stroke="black" stroke-width="0.01"/><rect x="20" y="9" fill="black" width="1" height="1" stroke="black" stroke-width="0.01"/><rect x="0" y="10" fill="black" width="1" height="1" stroke="black" stroke-width="0.01"/><rect x="1" y="10" fill="black" width="1" height="1" stroke="black" stroke-width="0.01"/><rect x="2" y="10" fill="black" width="1" height="1" stroke="black" stroke-width="0.01"/><rect x="3" y="10" fill="black" width="1" height="1" stroke="black" stroke-width="0.01"/><rect x="6" y="10" fill="black" width="1" height="1" stroke="black" stroke-width="0.01"/><rect x="8" y="10" fill="black" width="1" height="1" stroke="black" stroke-width="0.01"/><rect x="9" y="10" fill="black" width="1" height="1" stroke="black" stroke-width="0.01"/><rect x="12" y="10" fill="black" width="1" height="1" stroke="black" stroke-width="0.01"/><rect x="16" y="10" fill="black" width="1" height="1" stroke="black" stroke-width="0.01"/><rect x="18" y="10" fill="black" width="1" height="1" stroke="black" stroke-width="0.01"/><rect x="20" y="10" fill="black" width="1" height="1" stroke="black" stroke-width="0.01"/><rect x="1" y="11" fill="black" width="1" height="1" stroke="black" stroke-width="0.01"/><rect x="4" y="11" fill="black" width="1" height="1" stroke="black" stroke-width="0.01"/><rect x="7" y="11" fill="black" width="1" height="1" stroke="black" stroke-width="0.01"/><rect x="8" y="11" fill="black" width="1" height="1" stroke="black" stroke-width="0.01"/><rect x="9" y="11" fill="black" width="1" height="1" stroke="black" stroke-width="0.01"/><rect x="10" y="11" fill="black" width="1" height="1" stroke="black" stroke-width="0.01"/><rect x="11" y="11" fill="black" width="1" height="1" stroke="black" stroke-width="0.01"/><rect x="12" y="11" fill="black" width="1" height="1" stroke="black" stroke-width="0.01"/><rect x="13" y="11" fill="black" width="1" height="1" stroke="black" stroke-width="0.01"/><rect x="14" y="11" fill="black" width="1" height="1" stroke="black" stroke-width="0.01"/><rect x="16" y="11" fill="black" width="1" height="1" stroke="black" stroke-width="0.01"/><rect x="18" y="11" fill="black" width="1" height="1" stroke="black" stroke-width="0.01"/><rect x="0" y="12" fill="black" width="1" height="1" stroke="black" stroke-width="0.01"/><rect x="2" y="12" fill="black" width="1" height="1" stroke="black" stroke-width="0.01"/><rect x="3" y="12" fill="black" width="1" height="1" stroke="black" stroke-width="0.01"/><rect x="4" y="12" fill="black" width="1" height="1" stroke="black" stroke-width="0.01"/><rect x="6" y="12" fill="black" width="1" height="1" stroke="black" stroke-width="0.01"/><rect x="9" y="12" fill="black" width="1" height="1" stroke="black" stroke-width="0.01"/><rect x="11" y="12" fill="black" width="1" height="1" stroke="black" stroke-width="0.01"/><rect x="18" y="12" fill="black" width="1" height="1" stroke="black" stroke-width="0.01"/><rect x="20" y="12" fill="black" width="1" height="1" stroke="black" stroke-width="0.01"/><rect x="8" y="13" fill="black" width="1" height="1" stroke="black" stroke-width="0.01"/><rect x="11" y="13" fill="black" width="1" height="1" stroke="black" stroke-width="0.01"/><rect x="12" y="13" fill="black" width="1" height="1" stroke="black" stroke-width="0.01"/><rect x="13" y="13" fill="black" width="1" height="1" stroke="black" stroke-width="0.01"/><rect x="14" y="13" fill="black" width="1" height="1" stroke="black" stroke-width="0.01"/><rect x="20" y="13" fill="black" width="1" height="1" stroke="black" stroke-width="0.01"/><rect x="0" y="14" fill="black" width="1" height="1" stroke="black" stroke-width="0.01"/><rect x="1" y="14" fill="black" width="1" height="1" stroke="black" stroke-width="0.01"/><rect x="2" y="14" fill="black" width="1" height="1" stroke="black" stroke-width="0.01"/><rect x="3" y="14" fill="black" width="1" height="1" stroke="black" stroke-width="0.01"/><rect x="4" y="14" fill="black" width="1" height="1" stroke="black" stroke-width="0.01"/><rect x="5" y="14" fill="black" width="1" height="1" stroke="black" stroke-width="0.01"/><rect x="6" y="14" fill="black" width="1" height="1" stroke="black" stroke-width="0.01"/><rect x="9" y="14" fill="black" width="1" height="1" stroke="black" stroke-width="0.01"/><rect x="10" y="14" fill="black" width="1" height="1" stroke="black" stroke-width="0.01"/><rect x="11" y="14" fill="black" width="1" height="1" stroke="black" stroke-width="0.01"/><rect x="16" y="14" fill="black" width="1" height="1" stroke="black" stroke-width="0.01"/><rect x="20" y="14" fill="black" width="1" height="1" stroke="black" stroke-width="0.01"/><rect x="0" y="15" fill="black" width="1" height="1" stroke="black" stroke-width="0.01"/><rect x="6" y="15" fill="black" width="1" height="1" stroke="black" stroke-width="0.01"/><rect x="8" y="15" fill="black" width="1" height="1" stroke="black" stroke-width="0.01"/><rect x="14" y="15" fill="black" width="1" height="1" stroke="black" stroke-width="0.01"/><rect x="15" y="15" fill="black" width="1" height="1" stroke="black" stroke-width="0.01"/><rect x="16" y="15" fill="black" width="1" height="1" stroke="black" stroke-width="0.01"/><rect x="19" y="15" fill="black" width="1" height="1" stroke="black" stroke-width="0.01"/><rect x="0" y="16" fill="black" width="1" height="1" stroke="black" stroke-width="0.01"/><rect x="2" y="16" fill="black" width="1" height="1" stroke="black" stroke-width="0.01"/><rect x="3" y="16" fill="black" width="1" height="1" stroke="black" stroke-width="0.01"/><rect x="4" y="16" fill="black" width="1" height="1" stroke="black" stroke-width="0.01"/><rect x="6" y="16" fill="black" width="1" height="1" stroke="black" stroke-width="0.01"/><rect x="8" y="16" fill="black" width="1" height="1" stroke="black" stroke-width="0.01"/><rect x="12" y="16" fill="black" width="1" height="1" stroke="black" stroke-width="0.01"/><rect x="14" y="16" fill="black" width="1" height="1" stroke="black" stroke-width="0.01"/><rect x="15" y="16" fill="black" width="1" height="1" stroke="black" stroke-width="0.01"/><rect x="18" y="16" fill="black" width="1" height="1" stroke="black" stroke-width="0.01"/><rect x="20" y="16" fill="black" width="1" height="1" stroke="black" stroke-width="0.01"/><rect x="0" y="17" fill="black" width="1" height="1" stroke="black" stroke-width="0.01"/><rect x="2" y="17" fill="black" width="1" height="1" stroke="black" stroke-width="0.01"/><rect x="3" y="17" fill="black" width="1" height="1" stroke="black" stroke-width="0.01"/><rect x="4" y="17" fill="black" width="1" height="1" stroke="black" stroke-width="0.01"/><rect x="6" y="17" fill="black" width="1" height="1" stroke="black" stroke-width="0.01"/><rect x="10" y="17" fill="black" width="1" height="1" stroke="black" stroke-width="0.01"/><rect x="12" y="17" fill="black" width="1" height="1" stroke="black" stroke-width="0.01"/><rect x="13" y="17" fill="black" width="1" height="1" stroke="black" stroke-width="0.01"/><rect x="14" y="17" fill="black" width="1" height="1" stroke="black" stroke-width="0.01"/><rect x="15" y="17" fill="black" width="1" height="1" stroke="black" stroke-width="0.01"/><rect x="17" y="17" fill="black" width="1" height="1" stroke="black" stroke-width="0.01"/><rect x="18" y="17" fill="black" width="1" height="1" stroke="black" stroke-width="0.01"/><rect x="19" y="17" fill="black" width="1" height="1" stroke="black" stroke-width="0.01"/><rect x="20" y="17" fill="black" width="1" height="1" stroke="black" stroke-width="0.01"/><rect x="0" y="18" fill="black" width="1" height="1" stroke="black" stroke-width="0.01"/><rect x="2" y="18" fill="black" width="1" height="1" stroke="black" stroke-width="0.01"/><rect x="3" y="18" fill="black" width="1" height="1" stroke="black" stroke-width="0.01"/><rect x="4" y="18" fill="black" width="1" height="1" stroke="black" stroke-width="0.01"/><rect x="6" y="18" fill="black" width="1" height="1" stroke="black" stroke-width="0.01"/><rect x="9" y="18" fill="black" width="1" height="1" stroke="black" stroke-width="0.01"/><rect x="12" y="18" fill="black" width="1" height="1" stroke="black" stroke-width="0.01"/><rect x="15" y="18" fill="black" width="1" height="1" stroke="black" stroke-width="0.01"/><rect x="16" y="18" fill="black" width="1" height="1" stroke="black" stroke-width="0.01"/><rect x="17" y="18" fill="black" width="1" height="1" stroke="black" stroke-width="0.01"/><rect x="0" y="19" fill="black" width="1" height="1" stroke="black" stroke-width="0.01"/><rect x="6" y="19" fill="black" width="1" height="1" stroke="black" stroke-width="0.01"/><rect x="8" y="19" fill="black" width="1" height="1" stroke="black" stroke-width="0.01"/><rect x="9" y="19" fill="black" width="1" height="1" stroke="black" stroke-width="0.01"/><rect x="10" y="19" fill="black" width="1" height="1" stroke="black" stroke-width="0.01"/><rect x="11" y="19" fill="black" width="1" height="1" stroke="black" stroke-width="0.01"/><rect x="12" y="19" fill="black" width="1" height="1" stroke="black" stroke-width="0.01"/><rect x="18" y="19" fill="black" width="1" height="1" stroke="black" stroke-width="0.01"/><rect x="19" y="19" fill="black" width="1" height="1" stroke="black" stroke-width="0.01"/><rect x="0" y="20" fill="black" width="1" height="1" stroke="black" stroke-width="0.01"/><rect x="1" y="20" fill="black" width="1" height="1" stroke="black" stroke-width="0.01"/><rect x="2" y="20" fill="black" width="1" height="1" stroke="black" stroke-width="0.01"/><rect x="3" y="20" fill="black" width="1" height="1" stroke="black" stroke-width="0.01"/><rect x="4" y="20" fill="black" width="1" height="1" stroke="black" stroke-width="0.01"/><rect x="5" y="20" fill="black" width="1" height="1" stroke="black" stroke-width="0.01"/><rect x="6" y="20" fill="black" width="1" height="1" stroke="black" stroke-width="0.01"/><rect x="8" y="20" fill="black" width="1" height="1" stroke="black" stroke-width="0.01"/><rect x="9" y="20" fill="black" width="1" height="1" stroke="black" stroke-width="0.01"/><rect x="10" y="20" fill="black" width="1" height="1" stroke="black" stroke-width="0.01"/><rect x="11" y="20" fill="black" width="1" height="1" stroke="black" stroke-width="0.01"/><rect x="13" y="20" fill="black" width="1" height="1" stroke="black" stroke-width="0.01"/><rect x="14" y="20" fill="black" width="1" height="1" stroke="black" stroke-width="0.01"/><rect x="19" y="20" fill="black" width="1" height="1" stroke="black" stroke-width="0.01"/><rect x="20" y="20" fill="black" width="1" height="1" stroke="black" stroke-width="0.01"/></svg>